<?xml version="1.0" encoding="UTF-8"?>
<svg width="300px" height="184px" viewBox="0 0 300 184" version="1.1" xmlns="http://www.w3.org/2000/svg" xmlns:xlink="http://www.w3.org/1999/xlink">
    <!-- Generator: Sketch 61.1 (89650) - https://sketch.com -->
    <title>Graphics/wifi - disconect</title>
    <desc>Created with Sketch.</desc>
    <g id="popup-spash-screen" stroke="none" stroke-width="1" fill="none" fill-rule="evenodd">
        <g id="Message/disconect-wifi" transform="translate(-810.000000, -292.000000)">
            <g id="Group-3" transform="translate(622.000000, 286.000000)">
                <g id="Graphics/wifi---disconect" transform="translate(188.000000, 0.000000)">
                    <g id="OBJECTS" transform="translate(0.000000, 11.818182)">
                        <g id="Group">
                            <path d="M34.9404743,53.6106743 C21.7020553,58.0605908 6.36988142,64.9908527 3.91640316,79.2526433 C2.3183004,88.5443567 7.50011858,98.2694071 15.3036364,103.069748 C19.1133992,105.413209 23.7890514,107.062861 25.7821739,111.177215 C28.878498,117.570108 23.3144269,124.900073 17.4394466,128.617853 C11.5644664,132.335633 4.39778656,135.283732 1.72351779,141.879214 C-0.0390513834,146.226663 0.651857708,151.289822 2.39715415,155.645092 C8.7970751,171.615982 27.4576285,178.610384 44.0529644,177.756226 C60.6483004,176.902067 76.3882609,170.168137 92.6666798,166.701441 C148.569486,154.795627 207.182609,181.818955 262.989289,169.435218 C271.673715,167.507886 280.421225,164.491736 287.1283,158.432059 C294.688498,151.601918 298.981146,141.296478 299.628498,130.894045 C300.246561,120.970317 296.868617,109.795856 288.340395,105.323256 C283.356838,102.709937 277.400751,102.817098 271.990632,104.238349 C268.535336,105.145697 265.14087,106.568513 261.577431,106.591979 C258.013992,106.616227 254.093834,104.756946 253.061225,101.204991 C251.975296,97.4700022 254.449051,93.6145551 257.287036,91.0661586 C263.057628,85.8833239 270.774783,83.2942531 276.015929,77.5333752 C281.059565,71.9891657 283.181858,63.7260408 281.470356,56.2998662 C279.758854,48.8736917 274.265375,42.5144333 267.354783,39.9597792 C249.74336,33.4487747 230.555613,51.1999444 212.546917,45.998337 C211.210158,45.6119319 209.803557,45.0166802 209.09913,43.7714233 C208.411976,42.5558897 208.569684,41.0141802 208.963953,39.6641089 C211.170356,32.1112185 219.73913,27.303056 220.114625,19.4177321 C220.318893,15.1305125 217.885692,11.1209727 214.818656,8.25422217 C193.744427,-11.4414883 163.208498,11.9868644 141.721225,19.3825332 C106.387984,31.5433438 70.3705929,41.7009489 34.9404743,53.6106743 Z" id="Path" fill="#444444" fill-rule="nonzero"></path>
                            <g transform="translate(82.608696, 73.596838)" fill="#F7B500" fill-rule="nonzero" id="Shape">
                                <path d="M29.8848221,33.4880632 C29.8825692,33.4843083 29.8840711,33.4798024 29.8878261,33.4775494 L36.3020158,29.6858103 C36.3057708,29.6835573 36.3065217,29.6790514 36.3050198,29.6752964 L33.4317391,24.8149012 C33.4294862,24.8111462 33.4249802,24.8103953 33.4212253,24.8118972 L27.0070356,28.6036364 C27.0032806,28.6058893 26.9987747,28.6043874 26.9965217,28.6006324 L10.1375889,0.0781027668 C10.135336,0.0743735509 10.13083,0.0735968379 10.1270751,0.0750988142 L3.42976285,4.03355731 C3.42600791,4.03581028 3.42300395,4.04106719 3.42300395,4.04482213 L0.266600791,45.4490514 C0.266600791,45.4528063 0.268102767,45.4595652 0.269604743,45.4633202 L2.68328063,49.5471937 C2.6855336,49.5509229 2.69003953,49.5516996 2.69379447,49.5501976 L24.0113439,36.9493676 C24.0150988,36.9471146 24.0196047,36.9486166 24.0218577,36.9523715 L31.4048221,49.4413043 C31.4070751,49.4450593 31.411581,49.4458103 31.415336,49.4443083 L37.2640316,45.9867589 C37.2677608,45.9845059 37.2685375,45.98 37.2670356,45.9762451 L29.8848221,33.4880632 Z M6.10027668,40.9618972 C6.09652174,40.9641502 6.09201581,40.9629558 6.08976285,40.9588933 L6.01391304,40.8312253 C6.01166008,40.8274704 6.0101581,40.8214625 6.01090909,40.8169565 L8.01304348,18.5839526 C8.01304348,18.5801976 8.01379447,18.5734387 8.01379447,18.5689328 L7.82003953,9.54806324 C7.82003953,9.5443083 7.82304348,9.53905138 7.82604743,9.53679842 L8.02505929,9.41964427 C8.02881423,9.4173913 8.03332016,9.41858572 8.03482213,9.42264822 L12.0751383,16.7395257 C12.0773913,16.7432806 12.0803953,16.7492885 12.0826482,16.7522925 L21.1343083,32.0664427 C21.1365613,32.0701976 21.1350593,32.0747036 21.1313043,32.0769565 L6.10027668,40.9618972 Z"></path>
                                <path d="M145.22083,12.855415 C145.223083,12.8516601 145.221915,12.8471542 145.218577,12.8449012 L138.590356,8.77229249 C138.586601,8.77049472 138.580593,8.77049472 138.576838,8.7715415 L100.491976,25.3203162 C100.488221,25.3218182 100.482964,25.3263241 100.481462,25.3293281 L97.9979447,29.3711462 C97.9956917,29.3749012 97.9968599,29.3794071 98.0001976,29.3816601 L119.099209,42.3459684 C119.102964,42.3482213 119.103715,42.3527273 119.101462,42.3564822 L111.506719,54.716996 C111.504466,54.720751 111.505968,54.7252569 111.508972,54.7275099 L117.29834,58.2849407 C117.302095,58.2871937 117.306601,58.2860255 117.308854,58.2826877 L124.903597,45.9221739 C124.90585,45.918419 124.910356,45.917668 124.914111,45.9199209 L131.262964,49.8205534 C131.266719,49.8228063 131.271225,49.8213043 131.273478,49.8183004 L134.229368,45.0082213 C134.231621,45.0044664 134.230119,44.9999605 134.227115,44.9977075 L127.878261,41.0963241 C127.874506,41.0940711 127.873755,41.0895652 127.876008,41.0858103 L145.22083,12.855415 Z M122.073123,37.5201186 C122.07087,37.5238735 122.066364,37.5246245 122.062609,37.5223715 L107.185534,28.3813439 C107.182013,28.3790909 107.181028,28.374585 107.183281,28.37083 L107.261383,28.243913 C107.263636,28.2401581 107.268142,28.2364032 107.271897,28.2349012 L127.865494,19.6210672 C127.869249,19.6195652 127.875257,19.6165613 127.879012,19.6143083 L135.765138,15.2300395 C135.768893,15.2277866 135.77415,15.2277866 135.777905,15.2300395 L135.974664,15.3509486 C135.978184,15.3532016 135.97917,15.3577075 135.976917,15.3614625 L131.394387,22.3501581 C131.392134,22.353913 131.388379,22.35917 131.386126,22.3629249 L122.073123,37.5201186 Z"></path>
                            </g>
                            <g transform="translate(113.399209, 58.577075)">
                                <circle id="Oval" fill="#A37DFF" transform="translate(36.796161, 37.051572) rotate(-45.000000) translate(-36.796161, -37.051572) " cx="36.7961605" cy="37.0515716" r="25.885562"></circle>
                                <path d="M11.1198814,33.8290119 C18.7994862,34.9209486 31.7097233,29.4364822 35.848419,28.6336759 C44.2624901,27.0010277 52.9033597,28.945336 61.4781423,29.2292095 C60.8841107,27.3539921 60.0805534,25.5733992 59.0982609,23.9099605 C55.9448617,24.0406324 52.6209881,23.4931621 49.4398024,23.4007905 C43.3996047,23.2250593 37.3924506,24.8118972 31.3605138,24.446917 C28.5735968,24.2779447 22.2998419,21.8372332 16.594585,20.8767194 C13.6762451,24.5175099 11.7244269,28.9626087 11.1198814,33.8290119 Z" id="Path" fill="#CCBBFF"></path>
                                <path d="M36.798419,11.1656917 C34.1684585,11.1656917 31.6308696,11.5607115 29.2389723,12.2899209 C32.4824901,14.1411067 38.9815415,14.8057312 40.4902767,15.007747 C43.2013439,15.3704743 46.1467194,15.5011462 48.4747826,14.0645059 C48.5070751,14.0442292 48.5386166,14.0209486 48.5709091,13.9999209 C45.0382609,12.1922925 41.039249,11.1656917 36.798419,11.1656917 Z" id="Path" fill="#CCBBFF"></path>
                                <path d="M62.6752174,37.4119763 C55.2171542,35.527747 47.3212648,35.3752964 39.8046245,37.0169565 C35.720751,37.9091304 31.7660474,39.3112253 27.7077075,40.3115415 C22.6047431,41.5694466 17.3440711,42.178498 12.0894071,42.1371937 C11.8678656,42.1356917 11.6418182,42.1281818 11.4127668,42.117668 C12.4401186,47.2949802 15.011502,51.9150593 18.6275099,55.480751 C24.826166,53.2841107 30.781502,50.4018182 36.3463241,46.8969565 C41.2142292,43.8306719 46.0851383,40.1793676 51.8144269,39.6551779 C55.3711067,39.33 58.8662055,40.2567194 62.3875889,40.9844269 C62.5648221,39.8181423 62.6586957,38.6240711 62.6752174,37.4119763 Z" id="Path" fill="#CCBBFF"></path>
                                <path d="M61.303913,45.3889723 C57.7930435,44.8692885 51.5162846,47.9566008 49.9797628,49.2588142 C48.6077075,50.4205929 47.4519368,51.8399605 45.9709881,52.8590514 C44.0912648,54.152253 41.8195257,54.7154941 39.6101186,55.2854941 C35.15,56.4360079 30.7229249,57.7134387 26.3356522,59.1147826 C25.778419,59.2927668 25.1746245,59.5368379 24.9027668,60.04 C28.4654545,61.8874308 32.5080237,62.9373123 36.798419,62.9373123 C39.8008696,62.9373123 42.6809091,62.4206324 45.3619368,61.4803953 C48.0482213,57.6450988 49.653834,52.6765613 53.9044269,50.8741897 C54.6231225,50.5700395 57.1479447,50.2088142 59.4286957,49.6177866 C60.1751779,48.2772727 60.802253,46.8624111 61.303913,45.3889723 Z" id="Path" fill="#CCBBFF"></path>
                            </g>
                            <path d="M227.493083,172.604862 C221.063123,138.196087 190.876403,112.150316 154.602174,112.150316 C118.327945,112.150316 88.1412253,138.196087 81.7112648,172.604862 L227.493083,172.604862 Z" id="Path" fill="#F7B500"></path>
                            <path d="M168.191304,154.622451 C167.848854,157.22087 163.822055,158.833241 159.198221,158.22419 C154.574387,157.614387 151.10332,155.013715 151.445771,152.415296 C151.788221,149.816877 155.81502,148.203755 160.438854,148.813557 C165.062688,149.42336 168.533755,152.024032 168.191304,154.622451 Z" id="Path" fill="#90C9EA"></path>
                            <g transform="translate(84.110672, 41.304348)">
                                <circle id="Oval" fill="#ABC3FF" cx="16.403834" cy="10.2036759" r="9.57509881"></circle>
                                <path d="M16.403834,0.628577075 C14.7013439,0.628577075 13.1062451,1.07766798 11.7206719,1.85644269 C11.7897628,1.97209486 11.8656126,2.08098814 11.9549802,2.17110672 C12.922253,3.1473913 15.2277866,3.18944664 16.5142292,3.25102767 C18.3962055,3.34114625 20.2939526,3.09181818 22.0865613,2.51055336 C20.4959684,1.33300395 18.5343874,0.628577075 16.403834,0.628577075 Z" id="Path" fill="#79A1F2"></path>
                                <path d="M23.7259684,5.74956522 C24.0421344,5.63916996 24.3635573,5.52426877 24.6511858,5.35604743 C24.4033597,4.93474308 24.130751,4.53071146 23.8235968,4.15371542 C22.8683399,4.58177866 21.913834,5.00909091 20.9585771,5.43715415 C20.2173518,5.76909091 19.4723715,6.10252964 18.6868379,6.3083004 C17.5303162,6.6116996 16.3197233,6.63047431 15.1241502,6.62071146 C12.6421344,6.60118577 10.2164427,6.36537549 7.7644664,6.09577075 C7.17118577,7.34166008 6.82873518,8.73098814 6.82873518,10.2029249 C6.82873518,10.8990909 6.90758893,11.5764822 7.0487747,12.2305929 C7.55418972,12.031581 7.99802372,11.7018972 8.45837945,11.4105138 C9.68173913,10.6362451 11.0620553,10.1548617 12.4296047,9.67873518 C16.1943083,8.36976285 19.9605138,7.06003953 23.7259684,5.74956522 Z" id="Path" fill="#79A1F2"></path>
                                <path d="M25.2031621,6.42920949 C24.4619368,7.09233202 23.9114625,7.97098814 23.1018972,8.60332016 C22.2502767,9.26794466 21.3040316,9.81241107 20.2977075,10.2074308 C19.5880237,10.4860474 18.8483004,10.6933202 18.1679051,11.0372727 C17.9148221,11.1656917 17.6489723,11.3421739 17.5866403,11.6185375 C17.4762451,12.1074308 18.051502,12.4596443 18.5396443,12.5730435 C19.50917,12.7983399 20.518498,12.7570356 21.5128063,12.7134783 C22.6918577,12.6624111 23.8716601,12.6113439 25.0507115,12.5602767 C25.2602372,12.5512648 25.4742688,12.5339921 25.6867984,12.5084585 C25.8700395,11.7687352 25.9781833,10.9997233 25.9781833,10.2029249 C25.9789328,8.86241107 25.7010672,7.5872332 25.2031621,6.42920949 Z" id="Path" fill="#79A1F2"></path>
                                <path d="M16.654664,9.94458498 C14.9514229,10.2855336 13.2879842,10.827747 11.7109091,11.5562055 C10.6587747,12.0420949 9.63818182,12.6128458 8.52897233,12.9500395 C8.21505929,13.045415 7.77347826,13.0822134 7.27932806,13.1054941 C7.84482213,14.883834 8.91347826,16.4383794 10.32083,17.5971542 C10.4192095,17.48 10.515336,17.3613439 10.6062055,17.2396838 C12.0375889,15.3366798 13.0108696,12.9380237 15.0783399,11.7559684 C15.453834,11.5411858 15.8616206,11.3707115 16.1883004,11.0868379 C16.5149802,10.8029644 16.7552964,10.3658893 16.654664,9.94458498 Z" id="Path" fill="#79A1F2"></path>
                                <path d="M25.0507115,14.2943083 C24.9425692,14.2815415 24.8329249,14.2777866 24.7322925,14.2837945 C22.6881028,14.3971937 20.643913,14.5105929 18.5997233,14.6239921 C17.3290514,14.694585 15.9885375,14.7877075 14.9364032,15.5026482 C14.124585,16.0538735 13.5831225,16.912253 13.0649407,17.7450988 C12.8892095,18.0274704 12.5730435,18.4194862 12.2794071,18.8347826 C13.4584585,19.3995257 14.7689328,19.7307115 16.1552569,19.7660079 C16.406087,19.4520949 16.6321344,19.1133992 16.8747036,18.7927273 C18.243004,16.9828458 20.3795652,15.7745059 22.6355336,15.5341897 C23.2333202,15.4703557 23.8386166,15.4688538 24.4356522,15.4050198 C24.6654545,15.0513043 24.8689723,14.6788142 25.0507115,14.2943083 Z" id="Path" fill="#79A1F2"></path>
                                <path d="M25.1903953,14.0051779 C25.4367194,13.4374308 25.6282213,12.8411462 25.7611462,12.222332 C23.2956522,13.1017391 20.3825692,13.8797628 17.2719763,14.4820553 C14.1200791,15.0926087 11.0988538,15.4598419 8.46513834,15.5589723 C8.81660079,16.0794071 9.21913043,16.5615415 9.66371542,17.0023715 C12.0894071,16.84917 14.7764427,16.4962055 17.5573518,15.957747 C20.3007115,15.4260474 22.8991304,14.758419 25.1903953,14.0051779 Z" id="Path" fill="#618DE5"></path>
                                <path d="M7.01347826,16.3324901 C3.58221344,16.3324901 0.782529644,15.7850198 0.462608696,14.1358498 C0.162213439,12.5813043 2.1913834,10.9681818 6.49604743,9.34079051 C6.88280632,9.19434783 7.31687747,9.38960474 7.46407115,9.77786561 C7.61051383,10.1661265 7.41525692,10.5994466 7.02699605,10.7458893 C2.66826087,12.3935573 1.89549407,13.6319368 1.93754941,13.8504743 C2.09675889,14.6720553 7.50537549,15.6235573 17.2719763,13.7310672 C21.3701186,12.9372727 25.146087,11.8370751 27.9044664,10.6309881 C31.0623715,9.25142292 31.5775494,8.29616601 31.542253,8.11517787 C31.4979447,7.88762846 30.2625692,7.00146245 25.3533597,7.14339921 C24.95083,7.15992095 24.5933597,6.82873518 24.5805929,6.41494071 C24.5685771,6.00039526 24.8945059,5.65418972 25.3090514,5.64217391 C30.1101186,5.49873518 32.7077866,6.23695652 33.0164427,7.82980237 C33.2815415,9.19810277 31.8058498,10.5649012 28.5052569,12.0067984 C25.648498,13.2549407 21.7606324,14.3904348 17.5566008,15.2052569 C14.7081028,15.7579842 10.5296047,16.3324901 7.01347826,16.3324901 Z" id="Path" fill="#FFFFFF" fill-rule="nonzero"></path>
                            </g>
                            <g transform="translate(239.565217, 60.079051)">
                                <circle id="Oval" fill="#7B91FF" transform="translate(9.102680, 9.271921) rotate(-10.900893) translate(-9.102680, -9.271921) " cx="9.10267996" cy="9.27192145" r="7.71221021"></circle>
                                <path d="M12.794585,2.4827668 C11.588498,1.8301581 10.2862846,1.53652174 9.00660079,1.55679842 C9.01110672,1.66494071 9.02312253,1.77158103 9.05166008,1.86920949 C9.36256917,2.93185771 10.9794466,3.84581028 11.8671146,4.38201581 C13.1655731,5.16754941 14.6059684,5.71802372 16.0989328,5.99438735 C15.4230435,4.55098814 14.3040711,3.2998419 12.794585,2.4827668 Z" id="Path" fill="#80C3FF"></path>
                                <path d="M16.0178261,8.91873518 C16.2844269,8.96229249 16.5562846,9.00359684 16.8243874,8.99458498 C16.8101186,8.60106719 16.7725692,8.20980237 16.6989723,7.82529644 C15.8586166,7.76221344 15.0182609,7.69913043 14.1771542,7.63604743 C13.5245455,7.5872332 12.8689328,7.53766798 12.2335968,7.38221344 C11.2978656,7.15391304 10.4334783,6.70256917 9.59011858,6.23770751 C7.83956522,5.27193676 6.21142292,4.17549407 4.57802372,3.04375494 C3.6798419,3.6986166 2.90482213,4.55173913 2.34007905,5.59486166 C2.07272727,6.08826087 1.86920949,6.59818182 1.71826087,7.11561265 C2.15233202,7.16818182 2.59316206,7.10509881 3.03098814,7.07505929 C4.19426877,6.99620553 5.35754941,7.18395257 6.50806324,7.37094862 C9.67798419,7.88687747 12.8479051,8.40280632 16.0178261,8.91873518 Z" id="Path" fill="#80C3FF"></path>
                                <path d="M16.8041107,9.96636364 C16.024585,10.1518577 15.2976285,10.5633992 14.4820553,10.70083 C13.6236759,10.8450198 12.7442688,10.8683004 11.8806324,10.7616601 C11.27083,10.6865613 10.6677866,10.5498814 10.0534783,10.5333597 C9.82517787,10.5273518 9.56909091,10.5498814 9.41889328,10.7218577 C9.15304348,11.0260079 9.42565217,11.4961265 9.7283004,11.7634783 C10.3283399,12.2951779 11.0598024,12.6526482 11.780751,13.0033597 C12.6353755,13.4194071 13.490751,13.8354545 14.3453755,14.251502 C14.4978261,14.3258498 14.6555336,14.3956917 14.8154941,14.4587747 C15.2292885,14.0051779 15.6002767,13.5012648 15.9059289,12.9372727 C16.4196047,11.9872727 16.7124901,10.9779447 16.8041107,9.96636364 Z" id="Path" fill="#80C3FF"></path>
                                <path d="M9.39936759,9.17857708 C8.06185771,8.76703557 6.67628458,8.51320158 5.27944664,8.42458498 C4.34747036,8.36525692 3.40573123,8.3787747 2.49102767,8.19177866 C2.23193676,8.13920949 1.90525692,7.99577075 1.5455336,7.82304348 C1.26391304,9.29948617 1.42537549,10.8104743 1.97810277,12.1712648 C2.09225296,12.1262055 2.20640316,12.0788933 2.31754941,12.0278261 C4.06134387,11.2287747 5.67071146,9.90252964 7.58798419,9.85822134 C7.93644269,9.84996047 8.2901581,9.88525692 8.63110672,9.8101581 C8.97130435,9.7343083 9.30924901,9.51577075 9.39936759,9.17857708 Z" id="Path" fill="#80C3FF"></path>
                                <path d="M13.68,15.4793676 C13.6079051,15.4290514 13.5320553,15.3847431 13.4584585,15.3494466 C11.966996,14.6457708 10.4755336,13.9420949 8.98332016,13.238419 C8.05660079,12.8013439 7.07055336,12.353004 6.05146245,12.4558893 C5.26517787,12.5354941 4.55249012,12.9357708 3.86608696,13.3270356 C3.63328063,13.4599605 3.25928854,13.616166 2.89205534,13.7979051 C3.51086957,14.6502767 4.31217391,15.386996 5.28019763,15.9434783 C5.57833992,15.8165613 5.86822134,15.6641107 6.16335968,15.5296838 C7.82679842,14.7719368 9.80339921,14.7351383 11.4938735,15.4305534 C11.9422134,15.6145455 12.3710277,15.8458498 12.8186166,16.0298419 C13.1167589,15.8676285 13.4036364,15.6821344 13.68,15.4793676 Z" id="Path" fill="#80C3FF"></path>
                            </g>
                            <path d="M97.7651383,141.424585 L87.9594862,160.02581 L85.2596838,158.602688 C83.8155336,157.841186 83.2620553,156.053083 84.0235573,154.608933 L91.072332,141.23834 C91.833834,139.79419 93.6219368,139.23996 95.066087,140.001462 L97.7651383,141.424585 Z" id="Path" fill="#FFFFFF"></path>
                            <path d="M220.63581,159.6383 L214.787115,144.99253 L217.621344,143.860791 C219.137589,143.255494 220.857352,143.993715 221.463399,145.50996 L225.119209,154.664506 C225.724506,156.180751 224.986285,157.900514 223.47004,158.506561 L220.63581,159.6383 Z" id="Path" fill="#FFFFFF"></path>
                            <path d="M129.785771,118.596047 L112.706047,130.861186 L110.926206,128.382174 C109.973953,127.055929 110.276601,125.209249 111.602846,124.256245 L123.88,115.439644 C125.206245,114.487391 127.052925,114.79004 128.005929,116.116285 L129.785771,118.596047 Z" id="Path" fill="#FFFFFF"></path>
                            <path d="M207.17585,138.911028 L190.40253,126.229842 L192.243202,123.795889 C193.227747,122.493676 195.081937,122.236087 196.38415,123.220632 L208.441265,132.336126 C209.743478,133.320672 210.001067,135.174862 209.016522,136.477075 L207.17585,138.911028 Z" id="Path" fill="#FFFFFF"></path>
                            <g transform="translate(106.640316, 126.166008)">
                                <ellipse id="Oval" fill="#90C9EA" transform="translate(13.424462, 10.394628) rotate(-26.916083) translate(-13.424462, -10.394628) " cx="13.4244616" cy="10.3946277" rx="11.8284546" ry="5.25709094"></ellipse>
                                <path d="M11.7875099,7.95671937 C17.0489328,5.28620553 22.2675494,4.79205534 24.1990909,6.62747036 C24.2734387,6.04770751 24.2035968,5.51 23.9632806,5.03687747 C22.6490514,2.44822134 16.8619368,2.74636364 11.0365217,5.70375494 C5.21185771,8.66114625 1.55529644,13.1565613 2.86952569,15.7452174 C2.99644269,15.9960474 3.17743083,16.21083 3.38470356,16.4075889 C3.71889328,13.8166798 7.02774704,10.3733992 11.7875099,7.95671937 Z" id="Path" fill="#494089"></path>
                            </g>
                            <g transform="translate(187.747036, 130.671937)" id="Path">
                                <path d="M14.0983004,9.44367589 C13.0649407,11.0966008 9.21312253,10.5513834 5.49498024,8.22632411 C1.77683794,5.90126482 -0.40027668,2.67727273 0.633083004,1.02434783 C1.66644269,-0.628577075 5.51826087,-0.0833596838 9.23640316,2.2416996 C12.9552964,4.56675889 15.1316601,7.79075099 14.0983004,9.44367589 Z" fill="#90C9EA"></path>
                                <path d="M8.2015415,3.45379447 C11.5599605,5.55355731 13.6522134,8.38328063 13.2654545,10.1300791 C13.6244269,9.97237154 13.9090514,9.74557312 14.0983004,9.44367589 C15.1316601,7.79075099 12.9552964,4.56675889 9.23640316,2.2416996 C5.51826087,-0.0833596838 1.66644269,-0.627826087 0.633083004,1.02434783 C0.533201581,1.1843083 0.471620553,1.36304348 0.430316206,1.55003953 C2.03667984,0.844110672 5.16229249,1.55379447 8.2015415,3.45379447 Z" fill="#494089"></path>
                            </g>
                            <path d="M160.438854,148.813557 C155.814269,148.203755 151.788221,149.816126 151.445771,152.415296 C151.420988,152.603794 151.421739,152.791542 151.436008,152.979289 C152.439328,150.88253 156.067352,149.669684 160.173004,150.211146 C164.461897,150.77664 167.752727,153.055138 167.935217,155.456047 C168.062134,155.190949 168.153004,154.913834 168.191304,154.622451 C168.533755,152.024032 165.062688,149.42336 160.438854,148.813557 Z" id="Path" fill="#494089"></path>
                            <circle id="Oval" fill="#90C9EA" cx="45.5211462" cy="84.677668" r="2.44071146"></circle>
                            <path d="M187.364032,17.8389723 C186.759486,17.8389723 186.269091,17.3485771 186.269091,16.7440316 C186.269091,16.1394862 186.759486,15.6490909 187.364032,15.6490909 C187.968577,15.6490909 188.458972,16.1394862 188.458972,16.7440316 C188.458972,17.3485771 187.968577,17.8389723 187.364032,17.8389723 Z" id="Path" fill="#90C9EA"></path>
                            <circle id="Oval" fill="#90C9EA" cx="202.884704" cy="37.052253" r="1.09494071"></circle>
                            <circle id="Oval" fill="#90C9EA" cx="19.9875494" cy="72.6926482" r="1.09494071"></circle>
                            <path d="M176.571581,56.2970751 C176.571581,57.0758498 175.940751,57.7066798 175.161976,57.7066798 C174.383202,57.7066798 173.752372,57.0758498 173.752372,56.2970751 C173.752372,55.5183004 174.383202,54.8874704 175.161976,54.8874704 C175.940751,54.8874704 176.571581,55.5183004 176.571581,56.2970751 Z" id="Path" fill="#FFFFFF"></path>
                            <path d="M235.804269,121.069802 C235.804269,121.848577 235.173439,122.479407 234.394664,122.479407 C233.615889,122.479407 232.985059,121.848577 232.985059,121.069802 C232.985059,120.291028 233.615889,119.660198 234.394664,119.660198 C235.173439,119.660198 235.804269,120.291028 235.804269,121.069802 Z" id="Path" fill="#FFFFFF"></path>
                            <path d="M277.391739,123.415138 C277.391739,124.193913 276.760909,124.824743 275.982134,124.824743 C275.20336,124.824743 274.57253,124.193913 274.57253,123.415138 C274.57253,122.636364 275.20336,122.005534 275.982134,122.005534 C276.760909,122.005534 277.391739,122.636364 277.391739,123.415138 Z" id="Path" fill="#FFFFFF"></path>
                            <path d="M55.5671146,143.974941 C55.5671146,144.753715 54.9362846,145.384545 54.1575099,145.384545 C53.3787352,145.384545 52.7479051,144.753715 52.7479051,143.974941 C52.7479051,143.196166 53.3787352,142.565336 54.1575099,142.565336 C54.9362846,142.565336 55.5671146,143.196166 55.5671146,143.974941 Z" id="Path" fill="#FFFFFF"></path>
                            <path d="M136.956957,41.9329249 C136.956957,42.7116996 136.326126,43.3425296 135.547352,43.3425296 C134.768577,43.3425296 134.137747,42.7116996 134.137747,41.9329249 C134.137747,41.1541502 134.768577,40.5233202 135.547352,40.5233202 C136.326126,40.5233202 136.956957,41.1541502 136.956957,41.9329249 Z" id="Path" fill="#FFFFFF"></path>
                            <polygon id="Path" fill="#FFFFFF" points="119.865217 76.188498 121.74419 77.2624111 119.826166 78.2649802 118.752253 80.1439526 117.749684 78.2259289 115.870711 77.1520158 117.788735 76.1494466 118.862648 74.2704743"></polygon>
                            <polygon id="Path" fill="#FFFFFF" points="208.387945 56.4119763 209.615059 57.1133992 208.362411 57.7682609 207.661739 58.9946245 207.006877 57.7427273 205.779763 57.0413043 207.032411 56.3864427 207.733083 55.1593281"></polygon>
                            <polygon id="Path" fill="#FFFFFF" points="63.5703953 115.301462 64.7975099 116.002134 63.5448617 116.656996 62.8441897 117.884111 62.1893281 116.631462 60.9622134 115.930791 62.2148617 115.275929 62.9155336 114.048814"></polygon>
                            <polygon id="Path" fill="#FFFFFF" points="64.2718182 65.2601186 65.4981818 65.9615415 64.2462846 66.6156522 63.5448617 67.8427668 62.89 66.5908696 61.6636364 65.8894466 62.9155336 65.234585 63.6169565 64.0074704"></polygon>
                            <polygon id="Path" fill="#FFFFFF" points="26.7464427 139.936877 27.9735573 140.637549 26.7209091 141.292411 26.0202372 142.519526 25.3653755 141.266877 24.1382609 140.566206 25.3909091 139.911344 26.091581 138.684229"></polygon>
                            <polygon id="Path" fill="#FFFFFF" points="249.669012 105.312569 250.896126 106.013241 249.644229 106.668103 248.942806 107.895217 248.287945 106.642569 247.061581 105.941897 248.313478 105.287036 249.014901 104.059921"></polygon>
                            <polygon id="Path" fill="#FFFFFF" points="264.809684 154.70581 266.036798 155.407233 264.78415 156.062095 264.083478 157.289209 263.428617 156.036561 262.201502 155.335138 263.45415 154.681028 264.154822 153.453913"></polygon>
                        </g>
                    </g>
                    <g id="Group" transform="translate(8.181818, 15.454545)" fill-rule="nonzero">
                        <path d="M49.4964922,23.9347981 C47.0727145,34.4515911 36.5820123,41.0111183 26.0651895,38.5873474 C15.5494551,36.1635765 8.98882091,25.6729041 11.4125987,15.156111 C13.8374648,4.639318 24.3270786,-1.92020923 34.8439014,0.503561662 C45.3596358,2.92733255 51.92027,13.418005 49.4964922,23.9347981 Z" id="Path" fill="#DB9022"></path>
                        <path d="M28.4775,27.6872436 C11.4263146,23.7697271 -0.890672193,16.2140509 0.0504965332,12.1519646 C0.988393526,8.09313928 15.0524861,8.09531326 32.1036715,12.0117427 C49.1526758,15.9292592 61.7990171,22.0631508 60.8600296,26.1230632 C59.9199514,30.1851495 45.5265043,31.60476 28.4775,27.6872436 Z M31.8779219,12.9845999 C17.101682,9.58992623 3.92095749,9.73775704 3.19463261,12.8748138 C2.46939831,16.0140445 14.2836287,21.7750982 29.0598686,25.1697718 C43.8361086,28.5644455 56.988478,28.5394447 57.7148029,25.401301 C58.4400372,22.2631572 46.6530713,16.3792736 31.8779219,12.9845999 Z" id="Shape" stroke="#EFD79F" stroke-width="2" fill="#EFD79F" stroke-linecap="round" stroke-linejoin="round"></path>
                        <path d="M30.8787224,18.5324463 C37.1221439,20.1153554 43.4796807,21.0583419 49.8679409,21.8181818 C51.0134826,12.041647 44.6010827,2.76658475 34.7235289,0.504507393 C24.9436315,-1.73576681 15.1911656,3.68449759 11.8181818,12.8047574 C18.2349708,14.4912315 24.4410854,16.9015703 30.8787224,18.5324463 Z" id="Path" fill="#DB9022"></path>
                    </g>
                    <g id="Group" transform="translate(225.454545, 0.000000)" fill-rule="nonzero">
                        <g transform="translate(3.850267, 0.000000)" fill="#72BDB9">
                            <circle id="Oval" transform="translate(23.980856, 24.342424) rotate(-25.481082) translate(-23.980856, -24.342424) " cx="23.980856" cy="24.3424238" r="17.8082298"></circle>
                            <path d="M41.8023529,24.0449198 L27.9709091,21.5326203 L41.0104813,19.1037433 C40.7916578,18.3952941 40.5304813,17.702246 40.2263102,17.0278075 L21.2175401,13.4168984 L37.0530481,12.2348663 C36.8008556,11.9627807 36.5383957,11.7003209 36.2682353,11.4436364 L20.8004278,11.7875936 L23.7099465,9.34074866 L20.6579679,9.69304813 L12.6583957,10.6158289 C11.6233155,11.4686631 10.6812834,12.4427807 9.85283422,13.5253476 L18.8817112,15.591016 L7.73647059,17.0842781 C7.50545455,17.602139 7.29561497,18.1347594 7.11144385,18.6834225 C6.65005348,20.0586096 6.37026738,21.4498396 6.25090909,22.8340107 L12.0763636,23.9037433 L6.22588235,25.5638503 C6.28877005,26.4827807 6.42160428,27.3914439 6.62374332,28.2802139 L12.6924064,28.2917647 L7.37454545,30.7431016 C8.07529412,32.5610695 9.07187166,34.2583957 10.3251337,35.7619251 L18.5922995,36.5358289 L13.8468449,38.9820321 C15.1963636,39.9170053 16.6954011,40.6838503 18.3298396,41.2325134 C19.1672727,41.5135829 20.0117647,41.726631 20.8562567,41.8787166 L31.0094118,40.7152941 C32.1766845,40.2147594 33.2881283,39.5897326 34.3251337,38.8524064 L20.3775401,35.5296257 L37.4002139,32.6868449 L24.4068449,28.3264171 L41.7298396,25.9617112 C41.7882353,25.3206417 41.813262,24.6808556 41.8023529,24.0449198 Z" id="Path" opacity="0.3"></path>
                            <path d="M40.9585027,18.935615 C40.8051337,19.9084492 40.5734759,20.8819251 40.2494118,21.8464171 C37.1204278,31.171123 27.0250267,36.1931551 17.7003209,33.0641711 C12.111016,31.1884492 8.07080214,26.8094118 6.40171123,21.5942246 C5.07208556,30.0224599 9.96898396,38.4269519 18.3285561,41.2325134 C27.653262,44.3614973 37.7486631,39.3388235 40.8776471,30.0147594 C42.1315508,26.2793583 42.0737968,22.4207487 40.9585027,18.935615 Z" id="Path" opacity="0.47"></path>
                        </g>
                        <path d="M47.3069519,29.5386096 C47.3069519,29.5386096 54.2759358,38.482139 44.1715508,35.822246 C40.7383957,34.9187166 34.3482353,32.346738 28.0337968,29.0669519 C26.4019251,28.2192513 24.8168984,27.2823529 23.2877005,26.2613904 C17.3698396,22.3103743 12.0359358,17.9512299 9.58909091,15.3792513 C2.38716578,7.80898396 13.5824599,9.60256684 13.5824599,9.60256684 C9.35037433,7.87893048 -3.09176471,5.00342246 0.82973262,13.9790374 C3.47037433,20.0220321 12.2104813,27.5011765 22.3437433,33.2752941 C32.2883422,39.368984 43.0543316,43.420107 49.6216043,42.820107 C59.3749733,41.9294118 50.8568984,32.4154011 47.3069519,29.5386096 Z" id="Path" fill="#008982"></path>
                    </g>
                </g>
            </g>
        </g>
    </g>
</svg>