<svg width="40" height="40" xmlns="http://www.w3.org/2000/svg">
    <path d="M32.384 10.655c-3.4 0-6.168-2.846-6.168-6.345 0-.54-.425-.977-.949-.977h-5.084a.963.963 0 0 0-.949.977v21.443c0 2.057-1.626 3.73-3.626 3.73s-3.626-1.673-3.626-3.73 1.627-3.73 3.626-3.73c.524 0 .95-.438.95-.977v-5.23c0-.54-.426-.977-.95-.977C9.758 14.84 5 19.735 5 25.753s4.759 10.914 10.608 10.914c5.85 0 10.608-4.896 10.608-10.914v-9.492a12.767 12.767 0 0 0 6.168 1.578c.524 0 .95-.438.95-.977v-5.23c0-.54-.426-.977-.95-.977zm-.95 5.19a10.967 10.967 0 0 1-5.613-2.132.926.926 0 0 0-.987-.076.98.98 0 0 0-.516.869v11.247c0 4.94-3.907 8.96-8.71 8.96-4.802 0-8.71-4.02-8.71-8.96 0-4.61 3.403-8.42 7.76-8.908v3.308c-2.595.465-4.574 2.799-4.574 5.6 0 3.134 2.478 5.684 5.524 5.684s5.525-2.55 5.525-5.684V5.286h3.24c.435 3.797 3.371 6.818 7.062 7.265v3.294z" fill="#FFF" fill-rule="nonzero"/>
</svg>
