<svg width="40" height="40" xmlns="http://www.w3.org/2000/svg">
    <g stroke="#FFF" stroke-width="2.5" fill="none" fill-rule="evenodd" stroke-linecap="round" stroke-linejoin="round">
        <path d="M35.97 12a4.212 4.212 0 0 0-2.94-3.03C30.424 8.333 20 8.333 20 8.333s-10.424 0-13.03.697a4.212 4.212 0 0 0-2.94 3.03 43.94 43.94 0 0 0-.697 8.016 43.94 43.94 0 0 0 .697 8.076 4.212 4.212 0 0 0 2.94 2.909c2.606.697 13.03.697 13.03.697s10.424 0 13.03-.697a4.212 4.212 0 0 0 2.94-3.03 43.94 43.94 0 0 0 .697-7.955A43.94 43.94 0 0 0 35.97 12z"/>
        <path d="m16.59 25.03 8.713-4.954-8.712-4.955z"/>
    </g>
</svg>
